# xmcd
#
# Track frame offsets:
#	150
#	15064
#	30221
#	44482
#	60064
#	73533
#	89065
#	107402
#	120871
#	136350
#	151332
#	166883
#	180815
#	195651
#	206639
#	222611
#	240627
#	257457
#	275280
#
# Disc length: 4057 seconds
#
# Revision: 0
# Processed by: cddbd v1.5.2PL0 Copyright (c) Steve Scherf et al.
# Submitted via: EasyCDDAExtractor 16.0.6.1
#
DISCID=eb0fd713
DTITLE=Kandis - Kandis 17
DYEAR=2016
DGENRE=Dansktop
TTITLE0=Nu Tænder Jeg Lys
TTITLE1=Jaquline
TTITLE2=Pokémon
TTITLE3=Kurs Mod Fjerne Kyster
TTITLE4=Tusind Tårer
TTITLE5=Joana
TTITLE6=Whiskey On The Rocks
TTITLE7=Hi-De-Ho
TTITLE8=Du Er Alt For Mig
TTITLE9=Movie It
TTITLE10=Touch By Touch
TTITLE11=Kære Bedste Ven
TTITLE12=Måneskin I Texas
TTITLE13=Levis 501
TTITLE14=Tænk Om Væggene Ku' Tale
TTITLE15=Bar' Syv Synder
TTITLE16=Brev Fra Mississippi
TTITLE17=Mexico, Margarita
TTITLE18=Bonustrack: Party Bier-Medley
EXTD=
EXTT0=
EXTT1=
EXTT2=
EXTT3=
EXTT4=
EXTT5=
EXTT6=
EXTT7=
EXTT8=
EXTT9=
EXTT10=
EXTT11=
EXTT12=
EXTT13=
EXTT14=
EXTT15=
EXTT16=
EXTT17=
EXTT18=
PLAYORDER=
